<?xml version="1.0" encoding="utf-8"?>
<!-- Generator: Adobe Illustrator 27.5.0, SVG Export Plug-In . SVG Version: 6.00 Build 0)  -->
<svg version="1.1" xmlns="http://www.w3.org/2000/svg" xmlns:xlink="http://www.w3.org/1999/xlink" x="0px" y="0px"
	 viewBox="0 0 2370 1899" style="enable-background:new 0 0 2370 1899;" xml:space="preserve">
<g id="Capa_3">
</g>
<g id="Capa_4">
	<g>
		<path style="fill:#FABD26;" d="M2142.356,1201.232c-18.845-4.754-39.42,71.177-39.42,71.177
			c-20.447,19.351-48.927,35.495-75.481,45.007c-26.491,9.519-62.109,13.5-89.24,5.789c-13.022-3.697-25.213-9.504-36.53-16.814
			c55.159-14.183,100.856-42.831,110.996-66.286c18.11-41.875-18.567-133.095-18.567-133.095v0.001
			c-1.19-3.09-2.455-6.152-3.754-9.186c-9.18-21.411-20.072-42.094-32.551-61.766c-3.692-5.821-8.143-11.999-14.843-13.588
			c-13.272-3.146-22.39,12.734-26.847,25.624c-12.419,35.884-26.888,72.258-52.957,99.873
			c-15.412,16.323-35.64,33.758-56.199,41.039c-1.871-3.175-3.745-6.347-5.634-9.506c-29.965-50.212-55.169-113.673-109.115-135.919
			c-19.032-7.843-40.763-5.657-58.57,4.69c-13.547,7.889-27.178,16.264-40.853,24.911c-0.578-1.333-2.336-2.066-3.905-0.819
			c-4.788,3.809-9.473,7.751-14.075,11.798c-19.072-19.219-38.95-37.639-59.563-55.198c-9.983-8.495-20.518-17.003-33.122-20.594
			c-3.61-1.029-7.271-1.623-10.954-1.872c0.153-1.447-1.037-2.981-3.002-2.673c-4.945,0.77-9.789,2.026-14.487,3.709
			c-8.674,1.437-17.326,3.99-25.703,6.537c-18.304,5.568-36.602,11.136-54.906,16.704
			c-54.213-86.967-108.438-171.309-157.424-262.893c-72.807-136.286-214.529-228.924-367.408-248.485
			c-13.825-19.636-25.219-40.958-33.925-63.288c-6.619-16.784-11.573-34.077-14.984-51.695c-1.349-6.944-3.083-14.849-9.255-18.259
			c-3.089-1.739-6.819-1.996-10.417-1.927c-34.075,0.577-66.8,23.018-79.598,54.651c-1.74,4.245,16.458,25.071,36.005,46.615
			c19.609,21.599,40.637,43.915,44.305,51.048c1.665,3.195,3.286,7.278,4.963,11.852c-1.937,3.81-3.42,6.692-3.099,5.447
			c-6.447,18.164-11.526,36.782-15.265,55.668c-0.094,0.337-0.184,0.675-0.265,1.018c-38.842,164.526-44.855,336.731-17.573,503.555
			c3.461,21.173,7.463,42.376,10.905,63.617c-17.405,1.664-34.509,2.631-49.877-4.965c-21.368-10.555-32.092-34.252-43.433-55.217
			c-11.344-20.959-26.541-37.139-49.74-42.615c-32.769-7.742-68.509-15.219-99.026-0.979c-20.656,9.644-37.56,28.833-66.166,15.841
			c-13.687-6.216-24.329-17.606-30.873-31.137c-7.041-14.548-11.386-30.753-13.607-47.047c-0.843-6.172-9.142-7.66-11.982-2.116
			c-20.275,39.639-22.171,88.589-3.979,129.345c5.951,13.343,15.043,27,36.474,21.474c7.912-2.042,15.055-6.361,21.121-11.842
			l69.458-62.808c4.17-3.767,9.124-6.744,14.624-7.874c16.777-3.448,23.986,10.203,29.121,22.246
			c17.573,41.196,32.6,83.667,54.743,122.602c12.132,21.334,26.703,41.746,44.008,59.096c-7.583-2.739-15.027-5.874-22.311-9.367
			c-41.384-19.86-89.808-45.126-137.333-35.915c-42.484,8.238-74.943,42.188-100.863,76.841
			c-25.919,34.653-49.408,72.829-85.507,96.689c-13.185,8.715-27.965-6.437-40.209-18.253
			c-12.598-12.155-22.952-26.446-30.699-42.15c-9.57-19.389-17.851-39.419-24.764-59.908c-3.214-9.518-14.462-13.756-23.089-8.602
			c-16.13,9.657-31.41,23.873-35.356,39.834c-5.394,21.825-2.417,44.994,4.145,66.499c4.772,15.666,11.476,30.854,20.978,44.198
			c25.913,36.411,70.561,55.844,114.928,61.206c0,0,43.92,9.042,170.83-33.435c51.064-17.09,104.942-20.424,151.105-18.309
			c17.126,18.508,35.421,35.673,58.894,46.112c28.562,12.705,60.298,17.506,92.164,18.489l0.21,0.317
			c0,0,274.332,29.102,351.288-18.618c15.589-9.667,27.693-26.304,37.085-46.689c31.567,19.427,66.895,32.766,103.53,38.672
			c38.32,6.17,76.808,9.442,115.509,11.425c0.01,0.007,0.019,0.015,0.028,0.022c0,0,113.869,21.091,226.901-20.319
			c74.775-27.388,94.39-61.722,106.666-79.534c6.241-9.13,10.611-13.882,19.42-11.183c26.028,8.034,60.54,128.235,134.291,120.689
			c7.337,1.271,15.181,1.601,23.174,1.341c11.645-0.354,23.121-1.842,34.303-4.369c102.977-3.886,273.824-11.372,284.025-98.246
			l0.193-1.155C2221.307,1289.896,2161.191,1206.053,2142.356,1201.232z"/>
		<g>
			<path style="fill:#C48D81;" d="M1096.962,1385.184c-23.855-27.451-42.115-59.279-60.247-90.786
				c-21.859-38.087-42.977-75.808-63.801-113.362c-6.807,46.376-16.355,92.598-26.073,137.693
				c-15.53,72.055-33.662,179.073-107.15,184.763c-21.328,1.649-43.63,2.824-65.87,2.138l0.21,0.317
				c0,0,274.332,29.102,351.288-18.618c15.589-9.667,27.693-26.304,37.085-46.689
				C1137.955,1425.597,1115.762,1406.904,1096.962,1385.184z"/>
			<path style="fill:#C48D81;" d="M490.224,1355.347c-35.156,15.458-60.778,46.125-86.8,74.367
				c-26.025,28.236-64.47,67.668-102.596,63.059c0,0,43.92,9.042,170.83-33.435c51.064-17.09,104.942-20.424,151.105-18.309
				c-11.232-12.141-21.962-24.859-33.319-36.638C563.555,1377.543,524.361,1340.341,490.224,1355.347z"/>
			<path style="fill:#C48D81;" d="M1980.056,1210.475c-8.187,16.406-16.605,33.127-29.611,46.049
				c-18.716,18.595-44.448,27.107-70.527,33.129c6.844,6.146,14.106,11.787,21.768,16.739
				c55.159-14.183,100.856-42.831,110.996-66.286c18.11-41.875-18.567-133.095-18.567-133.095v0.001
				c3.711,9.643,6.666,19.572,7.44,29.837C2003.508,1162.673,1991.629,1187.305,1980.056,1210.475z"/>
			<g>
				<path style="fill:#F8AC27;" d="M814.449,897.823c-50.208-86.028-66.788-190.742-47.475-288.315
					c-0.094,0.337-0.184,0.675-0.265,1.018c-38.842,164.526-44.855,336.731-17.573,503.555c3.461,21.173,7.463,42.376,10.905,63.617
					c-17.405,1.664-34.509,2.631-49.877-4.965c-21.368-10.555-32.092-34.252-43.433-55.217
					c-11.344-20.959-26.541-37.139-49.74-42.615c-32.769-7.742-68.509-15.219-99.026-0.979
					c-20.656,9.644-37.56,28.833-66.166,15.841c-13.687-6.216-24.329-17.606-30.873-31.137
					c-7.041-14.548-11.386-30.753-13.607-47.047c-0.843-6.172-9.142-7.66-11.982-2.116c-20.275,39.639-22.171,88.589-3.979,129.345
					c5.951,13.343,15.043,27,36.474,21.474c7.912-2.042,15.055-6.361,21.121-11.842l69.458-62.808
					c4.17-3.767,9.124-6.744,14.624-7.874c16.777-3.448,23.986,10.203,29.121,22.246c17.573,41.196,32.6,83.667,54.743,122.602
					c12.132,21.334,26.703,41.746,44.008,59.096c-7.583-2.739-15.027-5.874-22.311-9.367
					c-41.384-19.86-89.808-45.126-137.333-35.915c-42.484,8.238-74.943,42.188-100.863,76.841
					c-25.919,34.653-49.408,72.829-85.507,96.689c-13.185,8.715-27.965-6.437-40.209-18.253
					c-12.598-12.155-22.952-26.446-30.699-42.15c-9.57-19.389-17.851-39.419-24.764-59.908c-3.214-9.518-14.462-13.756-23.089-8.602
					c-16.13,9.657-31.41,23.873-35.356,39.834c-5.394,21.825-2.417,44.994,4.145,66.499c4.772,15.666,11.476,30.854,20.978,44.198
					c25.913,36.411,70.561,55.844,114.928,61.206c38.126,4.609,76.571-34.823,102.596-63.059
					c26.022-28.242,51.645-58.909,86.8-74.367c34.138-15.006,73.332,22.196,99.22,49.045c11.357,11.779,22.087,24.497,33.319,36.638
					c17.126,18.508,35.421,35.673,58.894,46.112c28.562,12.705,60.298,17.506,92.164,18.489c22.24,0.686,44.542-0.489,65.87-2.138
					c73.488-5.689,91.62-112.707,107.15-184.763c9.717-45.095,19.266-91.317,26.073-137.693
					C920.55,1086.601,870.064,993.233,814.449,897.823z"/>
				<path style="fill:#F8AC27;" d="M1515.249,1028.963c-9.983-8.495-20.518-17.003-33.122-20.594
					c-3.61-1.029-7.271-1.623-10.954-1.872c-0.09,0.831-0.618,1.633-1.702,2.042c-27.075,10.159-48.48,25.134-64.305,49.71
					c-1.774,2.763-5.788,0.358-4.37-2.555c10.576-21.631,29.999-39.961,52.888-48.161c-8.674,1.437-17.326,3.99-25.703,6.537
					c-18.304,5.568-36.602,11.136-54.906,16.704c12.963,20.791,25.922,41.731,38.81,62.956c6.75,11.126,14.078,22.699,22.762,32.538
					c8.233,9.386,19.354,14.912,30.992,16.199c10.802,1.224,22.052-1.155,31.76-7.397c25.044-16.044,50.208-32.813,75.272-49.014
					c0.712-0.634,1.427-1.266,2.142-1.895C1555.74,1064.943,1535.862,1046.522,1515.249,1028.963z"/>
				<path style="fill:#F8AC27;" d="M2001.556,1136.848c-0.775-10.265-3.73-20.193-7.44-29.837c-1.19-3.09-2.455-6.152-3.754-9.186
					c-9.18-21.411-20.072-42.094-32.551-61.766c-3.692-5.821-8.143-11.999-14.843-13.588c-13.272-3.146-22.39,12.734-26.847,25.624
					c-12.419,35.884-26.888,72.258-52.957,99.873c-15.412,16.323-35.64,33.758-56.199,41.039
					c5.916,10.041,11.776,20.131,17.842,30.084c0.125,0.152,0.234,0.329,0.322,0.532c9.608,15.74,19.74,31.124,31.429,45.391
					c3.473,4.314,7.134,8.489,10.932,12.476c3.977,4.223,8.119,8.293,12.429,12.163c26.078-6.021,51.811-14.533,70.527-33.129
					c13.006-12.922,21.425-29.642,29.611-46.049C1991.629,1187.305,2003.508,1162.673,2001.556,1136.848z"/>
			</g>
			<g>
				<path style="fill:#E5941B;" d="M719.362,1294.548c26.934,2.01,49.677-19.728,48.546-46.721
					c-0.981-23.431-4.089-46.805-7.868-70.131c-17.405,1.664-34.509,2.631-49.877-4.965c-21.368-10.555-32.092-34.252-43.433-55.217
					c-11.344-20.959-26.541-37.139-49.74-42.615c-32.769-7.742-68.509-15.219-99.026-0.979
					c-20.656,9.644-37.56,28.833-66.166,15.841c-13.687-6.216-24.329-17.606-30.873-31.137
					c-7.041-14.548-11.386-30.753-13.607-47.047c-0.843-6.172-9.142-7.66-11.982-2.116c-20.275,39.639-22.171,88.589-3.979,129.345
					c5.951,13.343,15.043,27,36.474,21.474c7.912-2.042,15.055-6.361,21.121-11.842l69.458-62.808
					c4.17-3.767,9.124-6.744,14.624-7.874c16.777-3.448,23.986,10.203,29.121,22.246c17.573,41.196,32.6,83.667,54.743,122.602
					c12.132,21.334,26.703,41.746,44.008,59.096c8.977,3.24,18.151,5.924,27.491,7.963
					C698.237,1291.811,708.82,1293.758,719.362,1294.548z M725.896,1186.865c17.601,0,17.576,27.314,0,27.314
					C708.291,1214.179,708.323,1186.865,725.896,1186.865z M711.406,1219.911c7.653,3.661,17.002,4.295,25.132,1.827
					c8.309-2.517,12.976-8.018,18.726-14.014c1.524-1.588,4.351,0.044,3.717,2.166c-5.935,19.677-34.39,23.408-49.196,12.796
					C708.101,1221.481,709.529,1219.014,711.406,1219.911z M710.678,1258.131c15.396,0,15.371,23.886,0,23.886
					C695.288,1282.017,695.313,1258.131,710.678,1258.131z M412.894,1145.28c-18.454,0-18.423-28.631,0-28.631
					C431.348,1116.648,431.316,1145.28,412.894,1145.28z M444.817,1114.061c-32.922,7.183-45.279-31.457-43.333-56.975
					c0.303-4.006,5.638-3.848,6.116,0c2.633,21.524,7.881,52.115,36.318,50.364C447.728,1107.218,448.484,1113.258,444.817,1114.061
					z M628.085,1196.592c-14.549,0-14.524-22.567,0-22.567C642.625,1174.025,642.6,1196.592,628.085,1196.592z M651.637,1154.04
					c-6.662-17.08-12.2-33.705-24.873-47.481c-6.553-7.12-10.823-10.141-14.225-19.163c-1.396-3.679,4.407-5.922,6.228-2.625
					c6.085,10.995,16.908,17.876,23.864,28.237c5.098,7.584,8.565,16.13,11.976,24.562c10.842,26.798,23.998,50.332,38.401,75.24
					c1.543,2.662-2.093,5.488-4.245,3.284C671.64,1198.538,660.476,1176.731,651.637,1154.04z"/>
			</g>
			<path style="fill:#FDCD7F;" d="M1831.284,1474.233c-11.573-22.887-23.018-45.71-34.59-68.604
				c-39.022-65.131-61.399-166.335-128.075-209.477c-12.86-8.357-30.089-4.947-39.61,7.077
				c-39.091,49.572-71.495,104.419-96.187,162.542c-14.209,33.499-25.907,80.113-48.668,108.72
				c-21.409,26.88-63.077,18.133-92.969,16.72c-3.249-0.149-6.497-0.308-9.743-0.474c0.01,0.007,0.019,0.015,0.028,0.022
				c0,0,113.869,21.091,226.901-20.319c74.775-27.388,94.39-61.722,106.666-79.534c6.241-9.13,10.611-13.882,19.42-11.183
				c26.028,8.034,60.54,128.235,134.291,120.689C1852.474,1497.593,1838.687,1490.145,1831.284,1474.233z"/>
			<path style="fill:#FDCD7F;" d="M2142.356,1201.232c-18.845-4.754-39.42,71.177-39.42,71.177
				c-16.395,51.312-33.109,103.194-63.586,147.755c-26.853,39.244-67.515,66.911-113.126,77.219
				c102.977-3.886,273.824-11.372,284.025-98.246l0.193-1.155C2221.307,1289.896,2161.191,1206.053,2142.356,1201.232z"/>
			<path style="fill:#FEC92F;" d="M1821.452,1220.671c-0.699-2.169,2.124-3.05,3.355-1.581
				c-6.066-9.953-11.926-20.043-17.842-30.084c-1.871-3.175-3.745-6.347-5.634-9.506c-29.965-50.212-55.169-113.673-109.115-135.919
				c-19.032-7.843-40.763-5.657-58.57,4.69c-13.547,7.889-27.178,16.264-40.853,24.911c0.331,0.769,0.272,1.736-0.45,2.64
				c-21.718,27.15-48.246,51.889-72.798,76.54c-22.152,22.253-43.789,43.218-71.229,58.746c-4.254,2.411-7.796-3.831-3.798-6.492
				c48.527-32.304,84.782-79.915,128.154-118.56c-25.063,16.201-50.227,32.97-75.272,49.014c-9.708,6.242-20.959,8.621-31.76,7.397
				c-28.165,38.195-54.843,73.815-53.688,125.44c0.194,9.582,1.412,19.483,6.366,27.646c8.421,13.959,26.038,19.936,42.368,19.547
				c33.047-0.835,61.856-22.823,83.843-47.512c21.99-24.688,39.928-53.17,65.195-74.455c25.272-21.348,61.34-34.396,91.692-21.348
				c13.756,5.921,24.876,16.526,34.972,27.584c16.258,17.702,30.648,37.059,42.974,57.639c-0.025-4.045,1.884-7.956,5.719-10.202
				c5.145-3.007,13.456-1.544,16.158,4.238c2.084,4.465,4.167,8.929,6.254,13.387c2.699,5.789,5.297,10.548,3.998,17.072
				c-1.362,6.8-9.418,8.715-14.831,6.027c-0.244-0.12-0.478-0.249-0.709-0.382c3.886,6.887,8.19,13.473,13.738,19.018
				c9.514,9.45,23.855,15.434,36.52,10.994c0.987-0.344,1.939-0.752,2.861-1.205
				C1839.196,1284.111,1831.341,1251.087,1821.452,1220.671z"/>
			<path style="fill:#FEC92F;" d="M1825.128,1219.622c0.006,0.011,0.012,0.02,0.016,0.032
				c11.998,29.151,23.736,58.094,34.122,87.812c4.544-5.859,7.318-13.352,8.093-20.784c0.319-3.083,0.319-6.103,0.131-9.193
				c-3.798-3.987-7.459-8.163-10.932-12.476C1844.869,1250.746,1834.736,1235.361,1825.128,1219.622z"/>
			<path style="fill:#FEC92F;" d="M1232.896,885.154c-0.878,0.223-1.783,0.341-2.721,0.343c-1.99-0.006-3.845-0.509-5.563-1.507
				c-1.652-0.979-2.971-2.297-3.952-3.95l-1.021-1.576c-1.106-1.903-1.665-3.955-1.671-6.16c0.006-2.204,0.565-4.256,1.671-6.16
				c1.471-2.517,3.811-4.398,6.503-5.349c-10.895-34.139-27.266-67.009-45.848-97.637
				c-35.056-57.766-79.082-111.055-134.594-149.583c-36.442-25.286-123.74-69.308-183.421-61.922
				c45.176,28.941,87.828,63.296,120.004,106.121c46.013,61.237,81.737,133.074,119.532,199.612c1.593,2.801-2.57,5.186-4.289,2.505
				c-38.698-60.145-74.244-122.64-114.969-181.46c-35.987-51.983-85.573-86.922-135.387-123.566
				c-13.956,4.381-25.622,12.578-33.654,25.797c-22.948,37.786-26.019,84.35-22.923,128.44
				c6.625,94.341,40.306,188.651,104.958,257.674c64.66,69.024,162.191,109.599,255.597,94.749
				c9.893-1.574,19.854-3.826,29.265-7.285c-15.939-39.005-29.033-79.159-38.954-120.315c-0.771-3.189,3.848-4.42,4.879-1.343
				c13.225,39.642,27.844,78.854,44.439,117.203c5.785-2.89,11.242-6.372,16.19-10.6c21.256-18.158,29.952-47.205,32.319-75.058
				C1241.542,937.493,1238.958,911.033,1232.896,885.154z"/>
			<path style="fill:#DB6D13;" d="M982.558,678.432c40.725,58.82,76.271,121.315,114.969,181.46
				c1.718,2.681,5.881,0.295,4.289-2.505c-37.795-66.538-73.519-138.375-119.532-199.612
				c-32.175-42.824-74.828-77.18-120.004-106.121c-9.774-6.262-19.666-12.272-29.599-18.058c-4.854-2.825-8.54,4.131-4.289,7.328
				c6.247,4.699,12.513,9.333,18.779,13.942C896.985,591.51,946.572,626.449,982.558,678.432z"/>
			<path style="fill:#DB6D13;" d="M1412.647,1213.739c-36.771,2.436-73.922,6.01-110.089-4.168
				c-39.694-11.164-55.568-46.396-73.613-80.27c-13.837-25.976-26.491-52.532-38.167-79.515
				c-16.595-38.348-31.214-77.56-44.439-117.203c-1.03-3.076-5.65-1.846-4.879,1.343c9.92,41.156,23.014,81.309,38.954,120.315
				c16.277,39.83,35.521,78.462,57.383,115.735c15.396,26.252,31.27,43.468,61.515,51.368c36.499,9.525,78.008,11.039,114.722,2.631
				C1419.684,1222.68,1418.56,1213.344,1412.647,1213.739z"/>
			<path style="fill:#DB6D13;" d="M1444.516,1204.617c-3.998,2.661-0.456,8.903,3.798,6.492
				c27.44-15.528,49.078-36.494,71.229-58.746c24.551-24.651,51.08-49.39,72.798-76.54c0.722-0.904,0.781-1.872,0.45-2.64
				c-0.578-1.333-2.336-2.066-3.905-0.819c-4.788,3.809-9.473,7.751-14.075,11.798c-0.715,0.629-1.431,1.261-2.142,1.895
				C1529.299,1124.702,1493.044,1172.313,1444.516,1204.617z"/>
			<path style="fill:#DB6D13;" d="M1825.128,1219.622c-0.088-0.203-0.197-0.38-0.322-0.532c-1.231-1.469-4.054-0.588-3.355,1.581
				c9.889,30.416,17.745,63.44,27.615,95.282c6.416,20.692,13.681,40.886,22.911,59.543c12.772,25.829,37.23,29.918,63.633,25.712
				c0.734,0.514,1.68,0.79,2.768,0.64c58.963-8.193,116.518-51.518,145.714-102.704c1.933-3.391-3.108-6.284-5.204-3.039
				c-35.012,54.184-79.507,82.229-140.904,98.518c-0.219-0.059-0.447-0.098-0.687-0.108c-25.598-1.155-44.255-3.529-58.733-29.147
				c-7.775-13.77-10.995-33.493-16.011-48.348c-1.077-3.195-2.177-6.378-3.289-9.555c-10.386-29.718-22.124-58.661-34.122-87.812
				C1825.14,1219.642,1825.134,1219.633,1825.128,1219.622z"/>
			<path style="fill:#DB6D13;" d="M693.008,1212.81c-14.402-24.908-27.559-48.442-38.401-75.24
				c-3.411-8.432-6.878-16.978-11.976-24.562c-6.956-10.361-17.779-17.242-23.864-28.237c-1.821-3.297-7.624-1.054-6.228,2.625
				c3.401,9.023,7.672,12.043,14.225,19.163c12.672,13.776,18.211,30.401,24.873,47.481c8.84,22.691,20.003,44.498,37.127,62.054
				C690.915,1218.298,694.551,1215.472,693.008,1212.81z"/>
			<path style="fill:#DB6D13;" d="M709.784,1222.686c14.806,10.613,43.261,6.882,49.196-12.796c0.634-2.122-2.192-3.755-3.717-2.166
				c-5.75,5.996-10.417,11.496-18.726,14.014c-8.13,2.468-17.479,1.834-25.132-1.827
				C709.529,1219.014,708.101,1221.481,709.784,1222.686z"/>
			<path style="fill:#DB6D13;" d="M443.917,1107.45c-28.437,1.751-33.684-28.84-36.318-50.364c-0.478-3.848-5.813-4.006-6.116,0
				c-1.946,25.518,10.411,64.158,43.333,56.975C448.484,1113.258,447.728,1107.218,443.917,1107.45z"/>
			<path style="fill:#DB6D13;" d="M287.574,1424.164c-21.275-5.318-40.656-11.145-56.736-27.03
				c-16.464-16.276-25.945-38.836-27.747-61.722c-0.228-2.87-4.517-2.958-4.536,0c-0.287,47.531,36.971,96.827,88.25,94.415
				C289.944,1429.677,290.844,1424.98,287.574,1424.164z"/>
			<path style="fill:#DB6D13;" d="M1852.49,1247.312c86.779-33.328,100.273-126.821,84.651-208.898
				c-0.69-3.655-6.525-2.788-6.438,0.865c0.893,36.393,4.667,72.868-4.223,108.695c-4.935,19.873-13.765,39.124-27.353,54.62
				c-3.973,4.54-8.374,8.835-12.978,12.734c0.628-0.527-30.061,18.981-30.364,20.438c0.734-3.573-3.251-5.871-5.997-3.485
				c-3.985,3.473-4.188,4.396-4.344,9.663C1845.344,1245.297,1849.123,1248.606,1852.49,1247.312z"/>
			<path style="fill:#DB6D13;" d="M1400.796,1055.693c-1.418,2.913,2.596,5.318,4.37,2.555c15.824-24.575,37.23-39.55,64.305-49.71
				c1.084-0.408,1.612-1.211,1.702-2.042c0.153-1.447-1.037-2.981-3.002-2.673c-4.945,0.77-9.789,2.026-14.487,3.709
				C1430.795,1015.732,1411.372,1034.062,1400.796,1055.693z"/>
			<path style="fill:#DB6D13;" d="M913.409,771.214c1.296-2.632,1.993-5.57,1.859-8.678c-1.034-24.21-8.678-48.29-25.994-65.877
				c-5.01-5.09-11.81-8.678-18.595-10.055c-3.846-2.599-8.877-3.662-14.715-2.077c-46.991,12.759,8.459,82.297,28.555,95.653
				c0.687,0.457,1.393,0.852,2.112,1.197c1.4,2.078,2.737,4.311,4.036,6.802c4.454,8.514,9.13,15.339,19.038,17.356
				c9.168,1.865,20.834-8.684,13.791-17.933C919.591,782.487,916.555,776.805,913.409,771.214z"/>
			<path style="fill:#DB6D13;" d="M1165.174,822.733c-1.859-11.466-5.969-22.698-11.973-32.657
				c-6.137-10.182-13.344-18.326-24.295-19.579c-0.856-1.12-1.718-2.235-2.586-3.346c-5.254-6.718-16.72-6.185-22.777-1.355
				c-7.24,5.764-8.083,14.234-4.466,22.378c7.843,17.676,19.584,33.899,31.295,49.233
				C1143.556,854.661,1168.747,844.747,1165.174,822.733z"/>
			<path style="fill:#DB6D13;" d="M1045.882,676.95c-6.309,4.879-7.153,14.429-1.368,20.186c6.906,6.87,18.335,22.109,28.94,13.915
				c11.139-8.608-2.043-22.485-7.699-30.302C1061.047,674.231,1052.763,671.637,1045.882,676.95z"/>
			<path style="fill:#DB6D13;" d="M1001.759,949.235c-2.812-6.958-9.165-11.686-16.964-9.632
				c-6.637,1.752-12.332,10.04-9.627,16.966c7.612,19.496,16.764,37.234,30.386,53.238c6.266,7.366,19.226-0.471,16.211-9.437
				C1015.918,982.933,1008.643,966.275,1001.759,949.235z"/>
			<path style="fill:#DB6D13;" d="M1251.65,1018.095c0.984,1.343,1.902,2.881,3.102,4.031c1.337,1.274,2.983,2.204,4.563,3.145
				c3.767,2.254,8.69,1.777,12.094-0.847c3.426-2.65,5.06-7.189,3.899-11.447c-0.366-1.331-0.722-2.574-1.262-3.854
				c-0.881-2.079-2.305-3.692-3.686-5.463c-1.256-1.595-2.511-3.196-3.767-4.797c-1.672-2.122-5.76-3.572-8.359-3.46
				c-2.661,0.12-5.029,0.898-7.15,2.537c-4.257,3.29-6.537,10.473-3.045,15.239
				C1249.244,1014.817,1250.45,1016.456,1251.65,1018.095z"/>
			<path style="fill:#DB6D13;" d="M1219.639,866.145c-1.106,1.903-1.665,3.956-1.671,6.16c0.006,2.205,0.565,4.257,1.671,6.16
				l1.021,1.576c0.981,1.653,2.299,2.971,3.952,3.95c1.718,0.998,3.573,1.501,5.563,1.507c0.937-0.003,1.843-0.12,2.721-0.343
				c0.984-0.25,1.931-0.636,2.842-1.164c1.655-0.979,2.971-2.297,3.948-3.95l1.031-1.576c1.106-1.903,1.655-3.955,1.665-6.16
				c-0.009-2.204-0.559-4.256-1.665-6.16c-2.174-3.717-6.241-6.045-10.542-6.045c-1.39,0-2.752,0.244-4.032,0.696
				C1223.45,861.747,1221.111,863.627,1219.639,866.145z"/>
			<path style="fill:#DB6D13;" d="M1123.665,1232.651c-6.203,0-6.216,9.645,0,9.645
				C1129.875,1242.296,1129.881,1232.651,1123.665,1232.651z"/>
			<path style="fill:#DB6D13;" d="M1301.364,1372.709c-10.617-3.956-21.849-5.306-29.352-14.209
				c-13.022-15.441-33.185,4.244-26.01,20.067c6.831,15.044,20.674,18.301,34.303,21.97c2.161,1.628,4.466,3.119,6.956,4.476
				c8.055,4.39,15.402,9.538,24.532,11.24c7.675,1.425,17.664-3.523,16.802-12.803
				C1327.127,1387.646,1315.604,1378.02,1301.364,1372.709z"/>
			<path style="fill:#DB6D13;" d="M1118.873,1124.892c0.893,0.691,1.79,1.382,2.684,2.073c1.059,0.445,2.114,0.892,3.17,1.337
				c1.765,0.553,3.53,0.634,5.292,0.239c1.765-0.081,3.411-0.603,4.935-1.576c0.775-0.415,1.552-0.836,2.323-1.255
				c2.118-1.25,3.792-2.933,5.042-5.042c1.275-2.191,1.918-4.552,1.924-7.089c-0.172-1.25-0.334-2.492-0.503-3.736
				c-0.665-2.379-1.871-4.452-3.617-6.204c-1.268-1.368-2.777-2.335-4.52-2.906c-1.677-0.88-3.479-1.281-5.413-1.205
				c-2.536,0.006-4.904,0.646-7.097,1.914c-2.108,1.25-3.792,2.933-5.041,5.042c-0.416,0.779-0.834,1.551-1.256,2.33
				c-0.446,1.055-0.89,2.11-1.337,3.164c-0.553,1.765-0.634,3.53-0.241,5.294c0.006,1.199,0.309,2.317,0.912,3.352
				C1116.665,1122.269,1117.58,1123.687,1118.873,1124.892z"/>
			<path style="fill:#DB6D13;" d="M1136.437,1333.383c-4.145-4.947-12.61-4.282-16.892,0c-4.651,4.653-4.476,12.219,0,16.885
				c6.569,6.843,12.904,14.24,21.493,18.622c6.154,3.14,15.83-2.216,12.891-9.914
				C1150.125,1349.012,1143.187,1341.433,1136.437,1333.383z"/>
			<path style="fill:#DB6D13;" d="M1468.184,1316.883c-2.318,0.647-4.567,1.319-6.731,2.443c-0.75,0.389-1.496,0.922-2.218,1.374
				c-0.231,0.146-0.403,0.257-0.531,0.342c-0.05,0.002-0.166,0.031-0.372,0.104c-1.18,0.409-2.318,0.816-3.479,1.313
				c-1.753,0.771-2.152,0.929-1.212,0.482c0.609-0.269,0.541-0.269-0.206,0c-0.825,0.227-1.627,0.478-2.467,0.641
				c-0.047,0.008-0.088,0.017-0.128,0.026c-0.247,0.001-0.603,0.01-1.109,0.031c-13.388,0.553-15.196,18.241-3.07,22.679
				c6.097,2.235,13.322,3.027,19.572,1.018c3.111-1.005,6.416-2.342,9.133-4.213c4.188-2.895,6.097-6.429,7.993-11.057
				C1487.056,1323.049,1476.421,1314.597,1468.184,1316.883z"/>
			<path style="fill:#DB6D13;" d="M1603.996,1155.063c13.569-10.253,29.674-17.053,46.344-20.35
				c11.835-2.342,9.015-21.09-2.827-20.865c-21.034,0.396-39.354,6.712-56.371,19.226
				C1578.014,1142.724,1590.968,1164.908,1603.996,1155.063z"/>
			<path style="fill:#DB6D13;" d="M860.29,865.386c-0.006-2.563-0.631-4.961-1.877-7.184c-0.188-0.51-0.378-1.03-0.459-1.261
				l-0.481-1.571c-0.072-0.339-0.128-0.593-0.172-0.771c0.028-1.462,0.231-3.068-0.193-0.22c0.584-3.924,0.653-7.372-1.431-10.931
				c-1.721-2.945-5.094-5.752-8.477-6.518c-7.434-1.695-15.414,2.229-17.448,9.902c-3.039,11.484-0.937,27.175,11.089,32.587
				c4.96,2.235,10.046,2.474,14.578-1.023c3.96-3.065,5.313-7.361,4.923-12.057C860.349,866.296,860.334,865.983,860.29,865.386z
				 M857.304,855.233c0.028,0.225,0.066,0.485,0.109,0.791C857.345,855.879,857.313,855.586,857.304,855.233z"/>
			<path style="fill:#DB6D13;" d="M1811.488,1281.501c1.299-6.524-1.3-11.283-3.998-17.072c-2.087-4.459-4.17-8.922-6.254-13.387
				c-2.702-5.782-11.013-7.245-16.158-4.238c-3.836,2.246-5.744,6.157-5.719,10.202c0.013,2.016,0.503,4.067,1.484,5.96
				c2.115,4.106,4.236,8.212,6.36,12.319c2.299,4.461,4.267,9.278,8.746,11.862c0.231,0.133,0.465,0.262,0.709,0.382
				C1802.07,1290.216,1810.126,1288.301,1811.488,1281.501z"/>
			<path style="fill:#DB6D13;" d="M1858.353,1405.679c-15.708,0-15.733,24.413,0,24.413
				C1874.065,1430.092,1874.09,1405.679,1858.353,1405.679z"/>
			<path style="fill:#DB6D13;" d="M1956.167,1333.421c-16.389,0-16.414,25.468,0,25.468
				C1972.553,1358.889,1972.578,1333.421,1956.167,1333.421z"/>
			<path style="fill:#DB6D13;" d="M1884.438,1179.199c14.515,0,14.54-22.566,0-22.566
				C1869.914,1156.633,1869.895,1179.199,1884.438,1179.199z"/>
			<path style="fill:#DB6D13;" d="M1945.607,1193.189c0.219,0.777,0.615,1.449,1.178,2.021c0.409,0.691,0.962,1.237,1.646,1.645
				c0.578,0.572,1.25,0.961,2.027,1.18c1.094,0.578,2.268,0.835,3.536,0.792c0.812-0.113,1.627-0.22,2.436-0.327
				c0.728-0.308,1.462-0.615,2.193-0.929c0.621-0.478,1.237-0.954,1.858-1.432c0.478-0.621,0.953-1.237,1.431-1.859
				c0.309-0.728,0.615-1.456,0.922-2.191c0.384-1.218,0.44-2.437,0.172-3.655c-0.006-0.828-0.216-1.601-0.628-2.316
				c-0.371-1.137-1.005-2.123-1.896-2.952l-1.212-0.96c-0.678-0.728-1.477-1.243-2.405-1.545c-0.887-0.464-1.846-0.678-2.87-0.64
				c-0.665,0.087-1.324,0.176-1.984,0.264c-1.262,0.358-2.361,0.992-3.289,1.921l-1.212,0.96c-0.484,0.615-0.962,1.237-1.44,1.852
				c-0.306,0.735-0.615,1.464-0.921,2.191c-0.385,1.224-0.44,2.443-0.163,3.661
				C1944.985,1191.701,1945.191,1192.472,1945.607,1193.189z"/>
			<path style="fill:#DB6D13;" d="M1962.683,1092.714c12.319,0,12.338-19.138,0-19.138
				C1950.37,1073.576,1950.351,1092.714,1962.683,1092.714z"/>
			<path style="fill:#DB6D13;" d="M628.085,1174.025c-14.524,0-14.549,22.567,0,22.567
				C642.6,1196.592,642.625,1174.025,628.085,1174.025z"/>
			<path style="fill:#DB6D13;" d="M710.678,1282.017c15.371,0,15.396-23.886,0-23.886
				C695.313,1258.131,695.288,1282.017,710.678,1282.017z"/>
			<path style="fill:#DB6D13;" d="M725.896,1214.179c17.576,0,17.601-27.314,0-27.314
				C708.323,1186.865,708.291,1214.179,725.896,1214.179z"/>
			<path style="fill:#DB6D13;" d="M412.894,1116.648c-18.423,0-18.454,28.631,0,28.631
				C431.316,1145.28,431.348,1116.648,412.894,1116.648z"/>
			<path style="fill:#DB6D13;" d="M783.997,1086.862c4.458,18.762,15.671,32.989,30.533,44.818
				c8.024,6.38,22.518,0.823,18.791-10.938c-13.668-43.143-22.099-85.694-22.742-131.11c-0.418-30.24-0.138-59.927-16.124-86.749
				c-4.738-7.956-14.609-10.071-22.609-5.934c-2.371,1.228-4.485,2.64-6.362,4.212c-3.395-1.412-8.409,0.479-9.699,4.284
				c-6.45,19.005-9.318,36.549-6.054,56.572c3.661,22.485,17.011,36.129,26.094,56.228
				C785.753,1040.19,778.553,1063.924,783.997,1086.862z"/>
			<path style="fill:#DB6D13;" d="M805.075,1168.594c-6.6,0.892-9.627,6.775-8.615,12.929c1.174,7.133,1.268,16.915,5.447,22.992
				c4.139,6.022,12.001,4.527,14.6-1.903c2.752-6.806,0.684-16.676,0.303-23.84C816.482,1172.556,811.466,1167.727,805.075,1168.594
				z"/>
			<path style="fill:#DB6D13;" d="M879.009,1282.676c17.064-15.798,21.147-37.234,20.303-59.788
				c-1.084-28.764-4.099-54.627-1.724-83.473c0.802-9.75-11.667-12.903-17.907-7.415c-37.807,33.235-1.284,94.015-20.672,135.248
				C852.987,1280.057,867.952,1292.916,879.009,1282.676z"/>
			<path style="fill:#DB6D13;" d="M815.233,1425.075c4.438-8.671-2.836-17.229-11.997-15.61
				c-10.592,1.878-18.907,8.42-28.224,13.349c-9.393,4.967-18.529,10.216-27.666,15.641c-7.793,4.634-4.81,17.989,4.767,17.588
				C773.974,1455.126,804.478,1446.09,815.233,1425.075z"/>
			<path style="fill:#DB6D13;" d="M845.441,1371.735c18.938,0,18.969-29.423,0-29.423
				C826.509,1342.312,826.478,1371.735,845.441,1371.735z"/>
			<path style="fill:#DB6D13;" d="M854.137,1436.106c-15.708,0-15.733,24.413,0,24.413
				C869.848,1460.519,869.873,1436.106,854.137,1436.106z"/>
			<path style="fill:#DB6D13;" d="M639.23,1337.467c-0.231-0.073-0.465-0.147-0.703-0.221c-1.003-0.32-2.04-0.478-3.089-0.519
				c-0.471-0.201-0.956-0.38-1.452-0.531c-4.773-1.318-10.114,0.729-12.657,4.986c-3.011,5.029-1.421,9.846,1.337,14.089
				c0.937,1.944,2.121,3.575,4.029,5.049c1.893,1.462,4.145,2.48,6.494,2.951c3.898,0.785,7.521,0.829,11.398-0.207
				c6.634-1.776,11.338-9.443,9.164-16.156C651.652,1340.416,645.783,1336.715,639.23,1337.467z"/>
			<path style="fill:#DB6D13;" d="M513.016,1280.986c-2.462,1.094-6.435,2.048-9.542,2.55c1.003-0.176,0.516-0.113-1.478,0.176
				c-1.174,0.126-2.336,0.314-3.489,0.566c-2.589,0.741-3.808,2.04-5.997,2.694c-11.057,3.321-10.355,18.151,0,21.761
				c3.045,1.062,4.27,2.01,7.843,2.556c3.495,0.527,7.081-0.169,10.498-0.986c5.463-1.306,10.742-3.553,15.683-6.185
				c6.385-3.397,8.353-12.262,4.804-18.322C527.35,1278.971,519.66,1278.054,513.016,1280.986z"/>
			<path style="fill:#DB6D13;" d="M341.165,1421.754c-6.204,0-6.216,9.644,0,9.644
				C347.368,1431.398,347.381,1421.754,341.165,1421.754z"/>
			<path style="fill:#DB6D13;" d="M180.108,1359.09c-1.437-5.4-7.503-8.163-12.557-6.034c-5.198,2.198-7.122,8.27-4.445,13.205
				c2.146,3.963,4.064,8.1,6.994,11.54c4.232,4.966,13.294,0.993,12.959-5.368C182.829,1367.893,181.282,1363.466,180.108,1359.09z"
				/>
			<path style="fill:#DB6D13;" d="M753.686,465.627c17.557-11.579,40.381-15.754,60.631-9.519
				c-6.619-16.784-11.573-34.077-14.984-51.695c-1.349-6.944-3.083-14.849-9.255-18.259c-3.089-1.739-6.819-1.996-10.417-1.927
				c-34.075,0.577-66.8,23.018-79.598,54.651c-1.74,4.245,16.458,25.071,36.005,46.615
				C741.663,478.096,747.133,469.934,753.686,465.627z"/>
		</g>
	</g>
</g>
</svg>
